<svg width="762" height="222" viewBox="0 0 762 222" fill="none" xmlns="http://www.w3.org/2000/svg">
<g clip-path="url(#clip0_478_979)">
<path d="M761.75 0.849976H638.35V179.05H761.75V0.849976Z" fill="black"/>
<path d="M115.35 81.05H105.35C102.45 48.15 97.55 44.55 68.15 44.55H43.75V100.85H61.75C71.95 100.85 77.05 97.35 77.05 87.35V80.65H86.45V129.65H77.05V122.95C77.05 112.95 71.95 109.45 61.75 109.45H43.75V155.55C43.75 161.25 46.15 163.75 50.45 163.75H63.95V172.75H0.25V163.75H10.65C14.95 163.75 17.35 161.25 17.35 155.55V52.85C17.35 47.15 14.65 44.65 10.65 44.65H0.25V35.65H115.35V81.05Z" fill="black"/>
<path d="M161.55 174.75C132.75 174.75 110.15 155.95 110.15 123.35C110.15 90.65 132.65 71.85 161.55 71.85C190.15 71.85 212.95 90.65 212.95 123.35C212.95 155.95 190.15 174.75 161.55 174.75ZM161.55 166.15C177.65 166.15 185.85 151.65 185.85 123.05C185.85 94.85 177.65 80.55 161.55 80.55C145.45 80.55 137.25 94.85 137.25 123.05C137.25 151.65 145.45 166.15 161.55 166.15Z" fill="black"/>
<path d="M317.95 157.95C317.95 162.25 319.95 164.25 323.25 164.25H333.25V172.85H293.05V155.05H292.05C282.85 166.25 270.85 174.85 255.25 174.85C237.25 174.85 226.25 164.85 226.25 143.25V88.75C226.25 84.45 224.45 82.45 220.95 82.45H211.15V73.85H251.95V142.45C251.95 155.35 257.25 161.45 267.05 161.45C277.85 161.45 286.65 153.45 292.35 143.85V88.95C292.35 84.45 290.55 82.45 287.25 82.45H276.05V73.85H317.95V157.95Z" fill="black"/>
<path d="M398.35 172.85H339.35V164.25H349.15C352.85 164.25 354.45 162.25 354.45 157.95V88.7501C354.45 84.4501 352.85 82.4501 349.15 82.4501H339.35V73.8501H379.35V94.2501H380.35C388.55 80.1501 399.95 71.9501 411.95 71.9501C423.75 71.9501 430.55 79.7501 430.55 89.1501C430.55 97.9501 424.85 103.25 417.65 103.25C410.75 103.25 405.35 99.5501 405.35 92.2501C405.35 89.8501 406.35 87.7501 407.85 86.5501C407.25 86.1501 406.05 85.9501 404.95 85.9501C394.95 85.9501 385.75 96.7501 380.25 110.05V157.85C380.25 162.15 382.05 164.15 385.55 164.15H398.45V172.85H398.35Z" fill="black"/>
<path d="M483.15 174.75C464.55 174.75 453.75 166.55 453.75 143.75V82.4501H439.25V73.8501H446.65C456.25 73.8501 460.95 70.5501 463.55 56.9501L465.75 45.9501H479.45V73.8501H510.05V82.4501H479.45V148.55C479.45 159.95 483.15 163.45 490.05 163.45C496.75 163.45 501.65 159.75 501.65 149.15V139.35H509.45V149.75C509.45 165.15 501.05 174.75 483.15 174.75Z" fill="black"/>
<path d="M537.05 213.75C535.45 213.95 534.15 213.95 532.55 213.75C517.85 212.95 509.45 203.75 509.45 193.55C509.45 186.15 514.55 181.55 521.05 181.55C526.95 181.55 532.05 185.25 532.05 191.95C532.05 195.85 529.85 199.05 526.55 200.15C525.75 200.55 525.15 200.75 524.35 200.95C526.55 202.95 530.05 204.65 535.15 204.65C546.75 204.65 552.95 197.35 559.65 182.85C560.45 181.65 561.05 180.35 561.85 178.95L523.05 90.35C520.35 83.85 518.75 82.35 514.05 82.35H508.15V73.85H561.45V82.45H555.95C554.95 82.45 554.15 82.45 553.55 82.65C549.45 83.05 548.45 85.35 550.45 90.25L573.95 148.05L596.25 90.25C598.65 84.15 596.45 82.45 590.75 82.45H585.25V73.85H621.55V82.45H616.65C610.55 82.45 609.25 84.45 606.25 91.65L604.65 95.95L570.25 182.65C561.95 202.95 552.15 212.95 537.05 213.75Z" fill="black"/>
<path d="M724.45 172.65C703.55 172.65 697.15 153.95 681.45 153.95C671.85 153.95 665.25 159.75 665.25 170.85H649.45V159.55C649.45 106.05 713.55 113.15 713.55 77.25C713.55 63.45 704.85 55.55 690.25 55.55C677.65 55.55 669.55 62.65 668.75 69.55C669.65 69.15 670.75 68.85 671.85 68.85C680.05 68.85 684.95 74.65 684.95 82.85C684.95 90.35 678.95 96.85 669.45 96.85C659.05 96.85 651.65 89.05 651.65 77.15C651.65 57.85 668.95 41.65 700.05 41.65C724.05 41.65 747.15 52.25 747.15 77.65C747.15 124.25 667.95 110.45 661.25 153.75C667.95 141.35 679.05 134.25 691.25 134.25C705.65 134.25 712.75 143.55 724.95 143.55C733.55 143.55 739.65 139.55 739.65 124.95H751.25C751.25 160.25 740.45 172.65 724.45 172.65Z" fill="white"/>
<path d="M761.75 179.05H638.35V221.15H761.75V179.05Z" fill="#00BBFC"/>
<path d="M148.05 59.1499C142.35 59.1499 139.05 56.6499 139.05 49.6499V30.8499H134.65V28.2499H136.95C139.85 28.2499 141.35 27.2499 142.15 23.0499L142.85 19.6499H147.05V28.1499H156.45V30.8499H147.05V51.0499C147.05 54.5499 148.15 55.6499 150.25 55.6499C152.25 55.6499 153.75 54.5499 153.75 51.2499V48.2499H156.15V51.4499C156.15 56.2499 153.55 59.1499 148.05 59.1499Z" fill="black"/>
<path d="M174.35 58.5499H158.25V55.95H161.25C162.35 55.95 162.85 55.3499 162.85 54.0499V19.95C162.85 18.65 162.35 18.05 161.25 18.05H158.25V15.45H170.75V33.85H170.85C173.35 30.65 176.45 28.25 180.55 27.85C181.35 27.75 182.25 27.75 183.15 27.75C188.95 28.15 192.05 31.75 192.05 38.15V54.1499C192.05 55.4499 192.65 56.0499 193.65 56.0499H196.75V58.6499H180.65V56.0499H182.65C183.65 56.0499 184.25 55.4499 184.25 54.1499V37.05C184.25 35.95 184.05 35.15 183.55 34.4499C182.95 32.65 181.55 31.65 179.35 31.65C175.65 31.65 172.75 34.45 170.75 38.05V53.85C170.75 55.15 171.35 55.75 172.35 55.75H174.35V58.5499Z" fill="black"/>
<path d="M214.35 59.1499C205.45 59.1499 198.55 53.3499 198.55 43.4499C198.55 33.4499 205.35 27.6499 214.05 27.6499C222.15 27.6499 228.45 32.9499 228.45 43.1499H206.75C206.75 43.7499 206.75 44.4499 206.85 44.9499C207.15 52.3499 210.25 56.1499 215.75 56.1499C216.25 56.1499 216.55 56.0499 217.05 56.0499C221.35 55.7499 223.95 53.1499 224.95 48.5499H228.05C226.65 55.1499 222.05 59.1499 214.35 59.1499ZM206.75 40.5499H221.15C220.95 33.6499 218.55 30.2499 214.05 30.2499C209.75 30.2499 207.15 33.7499 206.75 40.5499Z" fill="black"/>
</g>
<defs>
<clipPath id="clip0_478_979">
<rect width="761.5" height="220.3" fill="white" transform="translate(0.25 0.849976)"/>
</clipPath>
</defs>
</svg>
